<?xml version="1.0" encoding="iso-8859-1"?>
<!-- Uploaded to: SVG Repo, www.svgrepo.com, Generator: SVG Repo Mixer Tools -->
<svg height="800px" width="800px" version="1.1" id="Layer_1" xmlns="http://www.w3.org/2000/svg" xmlns:xlink="http://www.w3.org/1999/xlink" 
	 viewBox="0 0 512 512" xml:space="preserve">
<path style="fill:#F5888E;" d="M284.473,451.31c0,0.198,0.025,0.395,0.025,0.593c0,10.243-8.291,18.533-18.533,18.533H33.36
	c-18.385,0-33.36-14.963-33.36-33.36V188.595c0-14.085,5.276-27.516,14.864-37.845l84.87-91.418
	c4.769-5.14,10.453-9.279,16.692-12.269c7.438-3.583,15.667-5.498,24.056-5.498h125.483c10.243,0,18.533,8.291,18.533,18.533
	c0,0.235-0.025,0.457-0.037,0.68c0,0.025,0.012,0.049,0.012,0.086V451.31z"/>
<path style="fill:#F76976;" d="M284.473,451.31c0,0.198,0.025,0.395,0.025,0.593c0,10.243-8.291,18.533-18.533,18.533H116.426
	V47.062c12.133-3.583,25.539-5.498,39.229-5.498h110.31c10.243,0,18.533,8.291,18.533,18.533c0,0.235-0.025,0.457-0.037,0.68
	c0,0.025,0.012,0.049,0.012,0.086V451.31z"/>
<path style="fill:#FFDCE1;" d="M512,74.924v362.152c0,18.397-14.962,33.36-33.36,33.36H212.675V41.564H478.64
	C497.037,41.564,512,56.526,512,74.924z"/>
<path style="fill:#F4CED2;" d="M512,74.924v362.152c0,18.397-14.962,33.36-33.36,33.36H362.338V41.564H478.64
	C497.037,41.564,512,56.526,512,74.924z"/>
<path style="fill:#FFDCE1;" d="M144.918,41.564V178.97c0,4.102-1.347,7.883-3.595,10.947c-3.262,5.288-9.094,8.822-15.766,8.822H0
	v-10.144c0-14.085,5.276-27.516,14.864-37.845L72.465,88.7l27.269-29.369c10.49-11.293,25.341-17.767,40.748-17.767H144.918z"/>
<path style="fill:#F4CED2;" d="M144.918,41.564V178.97c0,4.102-1.347,7.883-3.595,10.947c-3.262,5.288-9.094,8.822-15.766,8.822
	H72.465V88.7l27.269-29.369c10.49-11.293,25.341-17.767,40.748-17.767H144.918z"/>
<path style="fill:#F5888E;" d="M444.008,209.673l-67.894,67.881c-1.804,1.804-3.892,3.163-6.116,4.065
	c-2.236,0.902-4.609,1.359-6.981,1.359c-0.222,0-0.457,0-0.68-0.025c-4.51-0.148-8.982-1.952-12.43-5.399l-67.634-67.634
	c-9.847-9.217-15.346-23.599-15.098-39.55c0.247-15.519,5.819-29.208,15.321-37.709c21.14-20.634,55.13-20.485,76.073,0.469
	l3.768,3.756l0.68,0.68l4.436-4.436c21.103-21.103,55.452-21.103,76.555,0C465.111,154.234,465.111,188.57,444.008,209.673z"/>
<path style="fill:#F76976;" d="M444.008,209.673l-67.894,67.881c-1.804,1.804-3.892,3.163-6.116,4.065
	c-2.236,0.902-4.609,1.359-6.981,1.359c-0.222,0-0.457,0-0.68-0.025V136.887l0.68,0.68l4.436-4.436
	c21.103-21.103,55.452-21.103,76.555,0C465.111,154.234,465.111,188.57,444.008,209.673z"/>
<g>
	<path style="fill:#F5888E;" d="M439.683,324.542c0,10.243-8.291,18.533-18.533,18.533H307.541
		c-10.243,0-18.533-8.291-18.533-18.533c0-10.23,8.291-18.533,18.533-18.533H421.15
		C431.393,306.009,439.683,314.312,439.683,324.542z"/>
	<path style="fill:#F5888E;" d="M439.683,376.435c0,10.243-8.291,18.533-18.533,18.533H307.541
		c-10.243,0-18.533-8.291-18.533-18.533c0-10.23,8.291-18.533,18.533-18.533H421.15
		C431.393,357.902,439.683,366.205,439.683,376.435z"/>
</g>
<g>
	<path style="fill:#F76976;" d="M439.683,376.435c0,10.243-8.291,18.533-18.533,18.533h-58.812v-37.067h58.812
		C431.393,357.902,439.683,366.205,439.683,376.435z"/>
	<path style="fill:#F76976;" d="M421.15,343.075h-58.812v-37.067h58.812c10.243,0,18.533,8.303,18.533,18.533
		C439.683,334.785,431.393,343.075,421.15,343.075z"/>
</g>
</svg>